<?xml version="1.0" encoding="UTF-8"?>
<svg id="_레이어_1" xmlns="http://www.w3.org/2000/svg" width="74.26mm" height="64.72mm" version="1.1" viewBox="0 0 210.5 183.46">
  <!-- Generator: Adobe Illustrator 29.6.1, SVG Export Plug-In . SVG Version: 2.1.1 Build 9)  -->
  <g id="whole">
    <path d="M10.96.46c1.49.62,2.79,1.58,3.79,2.85.94,1.38,1.54,2.97,1.7,4.63.04,1.45-.32,2.77-.97,4.05-.46.81-.98,1.49-1.63,2.15.21.45.43.77.78,1.12l.93.93c.23.23.46.45.69.68.35.34.69.69,1.04,1.04l.67.67.32.32c.58.58,1.18,1.13,1.79,1.66,1.35,1.17,2.76,2.55,3.39,4.25.21.86.15,1.75.14,2.63v.65c0,.56,0,1.13,0,1.69,0,.58,0,1.16,0,1.73,0,1.13,0,2.26-.02,3.39l.37.03.49.04.49.04c.61.07,1.14.18,1.68.5.87.89,1.43,1.93,2.01,3.02l.31.56c.2.36.4.72.59,1.09.32.59.65,1.17.98,1.75l.16.28c.3.53.6,1.06.9,1.59.87,1.51,1.73,3.03,2.58,4.56l.15.27.71,1.28c.53.96,1.07,1.92,1.61,2.88l.2.34c.21.36.41.72.62,1.08l.19.34c.29.49.48.8.96,1.12.66-.56,1.03-1.28,1.44-2.02l.24-.43c.87-1.55,1.72-3.11,2.56-4.67.95-1.76,1.91-3.51,2.91-5.24.45-.79.9-1.59,1.34-2.39l.16-.29.78-1.44c1.14-2.09,2.03-3.36,2.68-3.82,1.4-.47,3.03-.33,4.5-.33h1.1c1.31,0,2.54,0,3.77.53.43.35.57.67.78,1.18.04.33.06.69.06,1.06v4.09c0,.71,0,1.41,0,2.12,0,1.35,0,2.69,0,4.03,0,2.39.02,4.78.03,7.16v2.5c0,2.55.02,5.1.07,7.66,0,.24,0,.48,0,.72,0,.33.02.66.02.99v.56c.03.31.13.59.28.84l.25.24c.39.07.77.1,1.16.1h.34c.24.02.48.02.72.03.36,0,.73.02,1.09.03,1.15.03,2.24.05,3.35-.31.65-.47.97-1.08,1.31-1.79.57-1.32,1.07-2.67,1.57-4.02.54-1.44,1.08-2.87,1.63-4.31.75-1.98,1.51-3.96,2.25-5.95l1.8-4.76c.47-1.23.94-2.47,1.4-3.7,1.05-2.79,1.81-4.79,2.3-5.98l.15-.36c.36-.84.84-1.56,1.53-2.16.65-.39,1.14-.52,1.89-.53l.58-.02c.2,0,.41,0,.61,0l.63-.02c.53,0,1.06-.02,1.59-.03.29,0,.57,0,.85-.02.49,0,.98-.02,1.47-.02h.43c1.11,0,2.21.07,3.21.6.82.69,1.29,1.4,1.69,2.39l.15.36c.8,1.97,1.53,3.96,2.28,5.95.39,1.02.77,2.03,1.16,3.05l.18.46c.34.88.68,1.77,1.03,2.65l.48,1.24.12.31c.41,1.05.82,2.1,1.21,3.16.49,1.33,1.01,2.65,1.52,3.97l.36.94c.28.7.54,1.4.81,2.1.19.49.37.99.57,1.48.09.24.18.48.27.72.48,1.31,1.12,2.54,1.91,3.68l.26.21.26.21c.18.13.41.24.7.32.41.02.81.03,1.21.03h1.11c.39,0,.76.01,1.14.02h1.07c.53,0,.94-.06,1.44-.23.27-.15.46-.35.57-.6.16-.52.17-.97.17-1.51v-3.84c0-.88,0-1.76.01-2.65l.02-4.2c.01-2.49.02-4.99.03-7.48v-2.19c0-1.8.02-3.58.04-5.38v-.33c.01-.68.02-1.37.04-2.05v-.49c.03-.67.08-1.13.36-1.75.34-.36.63-.59,1.1-.76.7-.16,1.4-.14,2.11-.13h13.14c3.74,0,7.14.27,10.45,2.16,1.73,1.04,3.22,2.51,4.29,4.22,1.18,2.13,1.6,4.55,1.6,6.96-.04,1.74-.43,3.52-1.27,5.05l-.19.37c-.57,1.01-1.27,1.84-2.08,2.66l-.32.33c-.96.94-2.06,1.57-3.23,2.22l-.39.22-.36.19-.25.21c-.03.39.03.72.2.98.69,1,1.4,1.98,2.14,2.95.51.68,1.01,1.36,1.5,2.05.67.99,1.41,1.93,2.22,2.81.41.14.67.18,1.09.18h.39l.42.02h.43c.45.02.89.03,1.35.04l.91.02c.75.02,1.49.03,2.24.05l.03-.28.04-.37.04-.36c.13-.88.69-1.53,1.23-2.21l.41-.52.2-.25c.17-.21.33-.43.49-.65.49-.67.91-1.21,1.67-1.56.78.05,1.4.36,2.09.7,2.51,1.18,5.24,1.9,8.01,1.91h.47c1.41.02,2.76-.24,4.01-.92.49-.34.86-.74,1.18-1.24.26-.65.38-1.27.35-1.97-.06-.41-.18-.75-.4-1.1-.8-.83-1.97-1.32-3.05-1.65-.34-.1-.69-.19-1.04-.28l-.56-.15c-.56-.15-1.11-.3-1.67-.44l-.49-.13c-.6-.16-1.2-.31-1.79-.47-2.99-.78-5.85-1.68-8.17-3.8-1.25-1.23-2.09-2.62-2.58-4.31-.11-.48-.21-.96-.3-1.45l-.06-.33c-.27-1.78-.14-3.7.47-5.42.66-1.63,1.7-2.83,3.01-3.97,2.6-1.99,5.82-2.79,9-3.21,1.07-.12,2.11-.19,3.18-.1l.91.08c2.36.2,4.68.64,6.95,1.31h.03c1.29.4,2.52.89,3.63,1.65.31.34.56.65.76,1.06.08.53.1.85,0,1.37-.73,1.53-1.87,3.19-3.22,4.25-.18.09-.46.15-.83.17-.52-.1-.96-.31-1.43-.53-1.38-.61-2.89-.79-4.38-1.01l-.53-.09c-1.89-.22-4.04-.3-5.84.39l-.35.14c-.52.23-.92.48-1.3.91-.44.65-.6,1.14-.67,1.91.06.61.16.92.5,1.44.75.86,1.58,1.24,2.64,1.63.86.3,1.73.53,2.61.76.39.1.78.21,1.16.32l.59.16c4.7,1.28,7.87,2.64,9.52,4.09l.32.28c1.28,1.2,1.77,2.64,2.3,4.27.12.36.27.71.41,1.06h.45c1.42,0,2.83.02,4.25.03.73,0,1.46,0,2.19,0l2.11.02h.8c2.14,0,3.91.34,5.84,1.35,2.35,1.39,4.62,3.83,6.03,6.17.91,1.83.95,3.59.93,5.58v.83l-.02,1.76c0,.93,0,1.86,0,2.79v1.45c0,2.16-.02,4.33-.04,6.5-.02,1.47-.02,2.93-.02,4.39,0,.78,0,1.55-.02,2.33,0,.73,0,1.45,0,2.18,0,.27,0,.54,0,.8-.02.81,0,1.52.26,2.29.45.47,1,.73,1.59.98.81.36,1.36.89,1.89,1.6.7,1.26.96,2.35.96,3.78-.02,1-.16,1.84-.66,2.73-.62,1-1.41,1.82-2.42,2.42-1.15.56-2.26.7-3.53.66-1.04-.1-1.91-.36-2.79-.93-1.05-.8-1.82-1.68-2.36-2.89-.4-1.08-.48-2.14-.32-3.28.24-1.1.7-2.1,1.39-3,.44-.48.84-.82,1.44-1.1.6-.29.99-.52,1.48-.98.29-.88.25-1.73.23-2.64v-.81c0-.73,0-1.46-.02-2.19,0-.76,0-1.53,0-2.29,0-1.29-.02-2.57-.03-3.85-.02-1.81-.03-3.62-.04-5.42,0-1.25,0-2.51-.02-3.77v-.91c0-.86-.02-1.73-.03-2.6v-.79c0-1.52-.26-2.99-.77-4.4l-.27-.3-.32-.37-.39-.42-.24-.27c-1.34-1.52-2.88-2.79-4.61-3.82-1.34-.4-2.7-.35-4.08-.36h-.79c-.69-.02-1.37-.02-2.07-.03-.7,0-1.4-.02-2.11-.02-1.38-.02-2.76-.03-4.14-.04-.02.14-.04.27-.06.41l-.08.54-.08.53c-.28,1.66-1.11,3.15-2.15,4.44-1.45,1.57-3.45,2.67-5.46,3.36-3.6,1.12-7.38,1.09-11.1.88-2.08-.12-5.49-.19-7.57-.19h-2.11s-.72,0-.72,0h-.36c-1.63,0-3.25-.01-4.88-.02-1.1,0-2.21,0-3.31-.01h-4.26c-.8-.01-1.46-.03-2.19-.37-.42-.27-.68-.44-.95-.85l-.22-.32-.23-.36-.24-.36c-.2-.29-.39-.58-.58-.87-.6-.91-1.23-1.79-1.85-2.68-.54-.77-1.07-1.54-1.58-2.32l-.3-.45c-.19-.29-.37-.57-.56-.85-.57-.85-1.17-1.57-2-2.16-1.32-.44-3.04-.16-4.39,0l-.16.15c-.01.29-.02.58-.02.87v.87c0,.31,0,.62,0,.93-.02.82-.02,2.16-.02,2.98,0,.46-.01.93-.02,1.39v.62c0,1.23-.09,2.07-.28,2.52-.28.47-.55.73-1,1.03-.49.17-.86.17-1.38.17h-21.79c-.55-.07-.91-.24-1.38-.52-.54-.41-.85-.92-1.13-1.53-.22-.56-.43-1.13-.63-1.7-.14-.39-.28-.77-.42-1.16l-.2-.55c-.3-.81-.61-1.6-1.1-2.32-.19-.06-.4-.09-.61-.1l-.37-.03c-.59-.03-1.18-.04-1.77-.04h-11.31c-.46,0-.86.02-1.3.17-.17.11-.3.28-.4.5l-.13.41-.15.45-.16.48c-.16.48-.33.96-.49,1.44-.11.33-.22.65-.33.98-.43,1.21-.95,2.17-1.93,3.03-.29.21-.58.36-.88.46-.45.04-.91.06-1.36.08l-.42.02c-1.83.07-3.66.07-5.48.07h-12.17c-1.2,0-2.51-.03-3.59-.58-.42-.53-.59-1.07-.74-1.73-.06-.67-.06-1.33-.05-1.99v-.59c0-.53,0-1.06,0-1.6v-1.68c0-1.06,0-2.11,0-3.17,0-1.9.02-3.79.02-5.69v-5.02c-.02-.4-.08-.77-.17-1.16-.47.23-.74.43-1.05.86l-.3.52-.17.3c-.2.35-.4.7-.59,1.05l-.23.41c-.35.62-.7,1.24-1.04,1.87-.66,1.17-1.31,2.33-1.98,3.48-.75,1.31-1.5,2.62-2.24,3.93l-.52.93c-.33.58-.65,1.17-.97,1.75l-.44.79-.19.35c-.29.51-.54.86-.98,1.26-.65.3-1.2.34-1.91.36l-.36.02c-.86.04-1.64-.05-2.47-.3-.56-.32-.85-.72-1.18-1.25-.36-.63-.69-1.27-1-1.93-.73-1.49-1.58-2.91-2.41-4.34-.45-.78-.89-1.56-1.32-2.34-.93-1.68-1.9-3.33-2.87-4.98l-.22-.38c-.19-.32-.37-.64-.57-.96l-.16-.28c-.24-.41-.53-.78-.87-1.11h-.46c-.2.4-.17.7-.17,1.16v6.45c0,1.69-.02,3.37-.02,5.06,0,1.13,0,2.27,0,3.41v5.46c-.05.29-.17.57-.36.85s-.42.46-.7.53c-1.18.33-2.44.28-3.65.29h-.4c-1.11.01-2.21-.07-3.21-.59-.44-.38-.72-.75-1-1.25v-.3h-.45l-.12.27c-.2.36-.41.6-.7.89l-.32.32-.35.34-.35.36c-.25.25-.5.49-.75.74-.38.38-.76.75-1.14,1.13l-.97.97c-.5.5-1.01.99-1.55,1.46-.39.34-1.07.99-1.44,1.41l-.33.37c-.58.85-1,1.82-1.13,2.85-.07,1-.06,2.02-.05,3.03v28.45c0,1.85.03,3.34.94,4.99,1.07,1.36,2.32,2.59,3.53,3.82l.26.26c.45.45.89.91,1.35,1.36.36.37.73.74,1.1,1.11.45.45.89.91,1.35,1.36.17.17.34.34.5.51,1.53,1.57,3.14,2.78,5.29,3.39.63.16,1.22.17,1.87.17h11.05c2.2,0,4.39,0,6.58,0h2.81c2.34,0,4.67,0,7,0,3.16,0,6.32,0,9.48,0l9.74.02h15.46c2.52,0,4.86.32,7.12,1.54,2.19,1.3,3.94,2.88,5.2,5.11,1.06,1.98,1.43,3.78,1.5,6.01l.02.54c.06,1.84.06,3.67.05,5.51v1.8l-.02,5.1c0,.95-.01,1.89-.01,2.84v1.49c-.04,3.09.41,6.08,1.36,8.98.65,1.1,1.4,2.05,2.3,2.96l.32.35c.76.77,1.6,1.27,2.57,1.74l.33.17c2.25,1.04,4.53,1.16,6.96,1.14h.94c.84,0,1.69,0,2.53,0h2.65c1.67,0,3.35,0,5.02,0,1.9,0,3.81,0,5.71-.02,3.92,0,7.83-.02,11.75-.03-.28-.44-.61-.84-.98-1.2-.49-.4-.77-.83-1.1-1.36l-.18-.28c-.32-.5-.59-.98-.78-1.55v-.46l-.52-.04-.55-.11c-.13-.21-.23-.41-.31-.6l-.56.02c-1.72.05-3.14-.07-4.71-.83-1.12-.62-1.94-1.39-2.63-2.47-1.03-1.8-1.39-3.45-1.39-5.49.02-1.7.5-3.03,1.34-4.5l.22-.37.25-.43.2-.33-.27-.04c-.23-.07-.43-.18-.6-.32-1.87-2.07-3.26-4.67-3.88-7.39-.36-1.71-.33-3.14.21-4.82.25-.69.56-1.21,1.11-1.71.51-.39.98-.73,1.62-.86.92-.09,1.82-.13,2.71.12.99.46,1.88,1.18,2.6,2,.68,1.04,1.14,2.19,1.63,3.31l.23.52c.37.83.61,1.42.72,1.77.11.03.23.06.35.09l.41.21c.28.44.47.93.66,1.41l.36.83.18.41c.23.52.47,1.03.73,1.53l.23.46c.16.25.35.46.56.65.71.28,1.39.24,2.14.23h.49c2.59-.05,5.54-.42,7.83-1.72l-.32-.25c-2.55-2.06-4.71-4.06-6.06-7.11-.09-.24-.16-.5-.21-.78l-.08-.34c-.25-.1-.5-.21-.75-.3-1.26-.92-2.04-2.01-2.67-3.42-.66-1.53-1.08-3.13-1.33-4.79l-.09-.28-.45-.3c-.37-.92-.57-1.89-.45-2.88.16-.27.36-.52.6-.76.33-.14.67-.26,1.03-.35l.54-.15.41-.1c-.05-.83-.12-1.64-.25-2.46-.48-3-.54-6.03-.66-9.06l-.28.16-.36.21-.36.21c-.53.26-.99.3-1.58.33-.15-.17-.3-.37-.45-.6-.19-.98,0-1.91.29-2.84.15-.42.31-.84.46-1.25.12-.32.24-.63.35-.95.33-.89.67-1.79,1.01-2.68l-.28.08c-.45.1-.81.03-1.26-.05-.16-.03-.32-.05-.48-.08l-.41-.1-.3-.3c.02-.6.11-.99.42-1.51.93-1.17,1.94-2.24,2.99-3.3l.41-.41c.79-.79,1.63-1.51,2.5-2.21.41-.33.8-.69,1.18-1.06,1.74-1.64,3.75-3.01,5.83-4.19.32-.19.66-.39.96-.58,2.7-1.72,5.71-2.89,8.84-3.56l.32-.07c5.42-1.17,11.43-.8,16.7.85,2.62.86,5.04,1.96,7.12,3.79.35.31.7.61,1.06.91h.16l.15-1.97.6-.16c.57.59,1.03,1.15,1.3,1.93.14.67.1,1.34.07,2.01l.37.1c1.63.47,3.05,1.09,4.29,2.27,1.67,1.81,2.51,3.91,3.04,6.27.87,4.29.49,9.08-.52,13.3-.1.72,0,1.3.25,1.97l.2.41c.92,1.94.95,3.87.84,5.98-.21,1.98-1.2,3.78-2.35,5.37-.18.23-.35.46-.53.68.23.6.65.96,1.12,1.37.17.15.33.3.5.45l.25.23c2.75,2.51,4.87,5.58,6.61,8.86l.25.47c1.95,3.76,4.79,13.62,3.67,17.77-.13.48-1.29-2.53-2.13-3.51l-5.49-.92c-1.8.85,4.63.9,5.75,2.62-.33.52-2.7,5.99-3.07,6.47l3.29-1.61c1.33-.66,2.28-1,2.87-1.02.89.09,1.7.35,2.45.85,1.39,1.15,2.18,2.82,2.8,4.47.58,1.61,1.01,3.34.72,5.06-.17.69-.39,1.2-.8,1.77-.56.46-1.07.68-1.76.84-.69.12-1.38.12-2.08.13l-.45.02c-.97,0-1.65-.17-2.51-.63-.44-.28-.75-.56-1.08-.96v-.3l-.31.21c-.78.52-1.64.91-2.54,1.15l-.77.21c-3.47.89-6.98,1.39-10.57,1.39h-.36c-3.1,0-5.84-.47-8.57-1.99-.34-.2-.65-.43-.96-.67l-.26.14c-1.11.54-2.26.85-3.47,1.11l-.99.19c-.85.16-1.71.25-2.57.25h-.39c-.23-.01-.45-.05-.66-.11l-.29-.06-.45.31c-.97.1-1.97.15-2.91-.16-.52-.25-.93-.49-1.33-.9-.19-.05-.4-.08-.62-.11-.84-.17-1.43-.59-2.11-1.1l-.42-.3c-.4-.36-.67-.75-.94-1.21v-.31l-.37-.09c-.81-.32-1.45-.78-2.02-1.44-.22-.29-.44-.58-.63-.89v-.31l-.28.15c-.29.16-.57.32-.86.47-.45.25-.91.51-1.36.76-1.04.59-2.14,1.06-3.28,1.41l-.39.12c-1.51.43-3.07.44-4.63.44h-34.4c-3.58,0-6.61-.54-9.75-2.32-.74-.45-1.39-.94-2.03-1.52l-.23-.21c-2.19-2-3.47-4.28-4.37-7.1-.36-1.19-.43-2.36-.48-3.59l-.02-.49c-.07-1.95-.07-3.9-.07-5.85v-3.1l-.02-4.73c0-1.07,0-2.14-.01-3.22v-1.69c0-.63,0-1.25-.01-1.88v-.56c-.01-1.51-.36-2.78-1.09-4.11-1.07-1.67-2.52-3.03-4.27-3.96-2.24-1.06-4.6-1.04-7.03-1.04h-34.65c-3.17,0-6.34,0-9.52,0h-15.08c-2.14,0-4.32-.21-6.23-1.26l-.31-.16c-2.08-1.12-3.75-2.91-5.41-4.57l-.47-.47c-.33-.33-.66-.66-.98-.98-.42-.42-.84-.83-1.25-1.25-.33-.32-.65-.65-.98-.97-.15-.16-.31-.31-.46-.46-1.94-1.92-3.35-3.69-4.16-6.31-.19-.72-.17-1.42-.17-2.15v-18.7c0-1.71,0-3.42,0-5.13v-6.58c0-2.16.04-4.16,1.06-6.12l.16-.31c.49-.93,1.13-1.65,1.87-2.39.19-.21.37-.43.56-.65.31-.36.61-.67.98-.97.27-.21.5-.43.68-.67.27-.36.61-.66.95-.96.64-.56,1.24-1.14,1.83-1.73l.34-.33.7-.7c.35-.35.71-.7,1.06-1.06l.68-.68.32-.31c.71-.71,1.3-1.51,1.75-2.39.02-.37.02-.74.02-1.11v-6.88c0-2.66.02-5.32.03-7.98,0-1.47,0-2.93,0-4.4v-2.33c0-.73,0-1.46,0-2.19v-.8c0-1.7.17-2.93.52-3.69.39-.42.68-.58,1.21-.78.54-.13,1.09-.21,1.63-.29l.54-.08.41-.06.02-3.32v-3.88c0-.89,0-1.67-.33-2.5-.16-.25-.34-.47-.55-.68l-.29-.32c-.3-.29-.59-.56-.91-.82-.76-.67-1.47-1.4-2.17-2.14-.29-.29-.58-.59-.86-.88-.45-.46-.9-.92-1.34-1.38-.29-.31-.59-.61-.88-.91-.28-.29-.55-.57-.82-.86-.35-.35-.68-.67-1.1-.95-.48-.07-.73,0-1.21.15-1.82.13-3.49-.02-5.17-.78-1.3-.69-2.45-1.83-3.31-3.01C.49,11.34.06,10,0,8.5c-.03-1.6.29-2.99,1.07-4.4.88-1.35,1.89-2.39,3.29-3.2C6.46-.08,8.76-.31,10.96.46M5.63,4.27c-.89.69-1.46,1.42-1.94,2.44-.3.91-.23,1.94-.15,2.88.24.83.68,1.47,1.27,2.1.56.52,1.16.93,1.88,1.17.94.18,1.96.18,2.89-.04.92-.33,1.65-.84,2.29-1.57.54-.8.87-1.51.95-2.47.02-.94.04-1.76-.39-2.62-.13-.22-.27-.45-.42-.67l-.25-.42c-.69-.67-1.51-1.11-2.4-1.46-1.39-.25-2.52-.06-3.74.65M125.01,43.7l-.27.28c-.06.28-.08.58-.07.89v3.07c0,.56.01,1.11,0,1.66v3.23s.05.39.05.39c.19.22.4.35.64.4.49.07.96.08,1.46.08h1.59c2.87.06,5.65-.32,8.34-1.13.7-.43,1.21-.85,1.65-1.55l.23-.35c.32-.56.36-1.04.37-1.67.03-.9-.08-1.78-.32-2.63-.58-.88-1.2-1.58-2.14-2.08-2.27-1-4.92-.8-7.35-.8-.48,0-.96,0-1.44-.02h-2.1c-.23.03-.45.1-.67.23M87.49,45.42c-.23.15-.42.38-.57.71-.09.22-.19.44-.27.66l-.16.37c-.72,1.81-1.37,3.64-2.02,5.47-.22.62-.45,1.24-.68,1.86l-.29.81-.14.35c-.18.49-.27.89-.25,1.42l.14.4c.34.22.58.3.99.34h7.41c.36-.02.66-.05.99-.17.13-.22.17-.51.14-.86-.14-1.08-.58-2.09-.98-3.1-.17-.43-.33-.87-.5-1.3l-.12-.32c-.41-1.09-.79-2.18-1.16-3.28-.38-1.13-.8-2.27-1.46-3.26-.4-.14-.65-.18-1.06-.07M202.33,102.01c-.47.3-.8.56-1.07,1.06-.3.75-.34,1.43-.23,2.23.13.53.33.85.69,1.25.43.43.84.7,1.43.86.63.09,1.19.09,1.8-.1.57-.25.92-.61,1.3-1.1.35-.52.47-.91.53-1.52-.05-.66-.19-1.19-.5-1.77-.44-.53-.89-.93-1.51-1.21-.94-.22-1.57-.15-2.42.3M171.93,111.6l-.42.23-.44.25-.51.28c-1.41.79-2.79,1.64-4.17,2.47-.67.41-1.28.66-2.09.82.07-1.17.22-2.03.45-2.58-.64.16-1.13.34-1.67.66-1.31.77-2.59,1.58-3.92,2.32-.41.23-.8.45-1.2.69-1.5.89-3.16,1.84-4.88,2.23.09-.36.19-.73.28-1.1l.08-.31c.14-.53.3-.98.54-1.47-.03-.27-.08-.53-.15-.76-.5.1-.88.29-1.32.55l-.42.24-.45.27c-1.16.67-2.32,1.29-3.53,1.84l-.36.17c-1.06.46-2.13.92-3.3.88.08-.87.33-1.64.61-2.46.11-.34.21-.68.3-1.03-.17-.08-.37-.13-.61-.15-1.39.53-2.76,1.36-3.94,2.27-.3.46-.38.69-.45,1.21-.16,3.05-.2,6.5.91,9.4.15.19.31.34.46.45l.38-.35c.64-.53,1.29-.76,2.09-.94,1.19-.18,2.22.11,3.34.5.6.25.97.57,1.37,1.08.3.44.54.86.7,1.37l-.28-.1-.39-.12-.38-.12c-1.41-.35-2.89-.31-4.34-.35l-.68-.02-1.65-.05v.6c1.01.21,2.03.4,3.05.57,3.13.54,5.15,1.16,6.04,1.85l.41.4c.27.23.45.35.8.42.33,0,.65,0,.97-.02h.34c.27-.02.54-.03.82-.05l.22-.56c.24-.46.45-.77.88-1.06,3.16-1.73,6.99-1.74,10.49-1.74h2.5c.81,0,1.49.12,2.27.34,2.54.35,5.25-.95,7.58-1.85.41-.17.81-.36,1.21-.57-.04-.61-.12-1.08-.43-1.61-.65-.97-1.5-1.79-2.3-2.63-1.59-1.68-2.57-3.37-3.18-5.6-.15-.72-.18-1.43-.19-2.16v-.36c-.02-.5-.03-1-.04-1.5,0-.37-.02-.73-.03-1.1v-.34c-.02-.57-.06-1.1-.19-1.65-.52,0-.71.1-1.15.35M185.02,126.84c-.95.88-1.54,1.91-2.08,3.08l-.16.34c-.1.22-.2.44-.3.67-.34.76-.74,1.44-1.37,1.99-.34.1-.64.15-.91.15-.36-.72-.4-1.47-.45-2.27-.17-.08-.37-.13-.61-.15-.18.07-.36.14-.55.23-.82.38-2.17,1-3.01,1.32l-.56.21c-.5.18-1.01.36-1.52.54l-.41.15-.33.11c-.2.11-.38.27-.54.48-.25.59-.22,1.11-.2,1.74.04,2.3-.02,4.6-1.11,6.68-.45.74-.94,1.23-1.68,1.69-.32.17-.66.33-.98.48l-.46.23c-1.36.57-2.67.6-4.13.6h-.59c-1.65-.02-2.97-.34-4.41-1.17-1.2-.8-2.06-1.87-2.7-3.15-.46-1.01-.83-2.07-1.21-3.11-.19-.53-.39-1.06-.59-1.58-.57.07-.88.13-1.36.45-.04.27-.05.56-.03.87v.54c.02.37.04.74.05,1.11.03,1.22-.03,2.29-.63,3.37-.26.42-.55.81-.84,1.21l-.22.48c.04.37.14.73.3,1.06.17.22.37.41.58.58l.31.26c.36.24.67.4,1.09.53.33.03.66.04.99.03h.51c.39-.03.71-.07,1.07-.18v.91c-1.25.37-2.2.5-2.87.39-.69-.18-1.26-.44-1.79-.93-.53-.58-.81-1.16-1.1-1.88l-.33.02c-.49.03-.99.05-1.49.07l-.52.03c-.91.04-1.76.04-2.66-.11.13,1.08.61,1.84,1.21,2.73.52.69,1.09,1.33,1.67,1.97l.34.37c1.9,2.01,4.46,3.39,7.09,4.19,3.32.95,7.07.86,10.42.03,1.88-.52,3.64-1.21,5.33-2.17l.3-.16c1.32-.74,2.5-1.56,3.64-2.57l.37-.32c.39-.34.77-.69,1.14-1.05l.23-.21c2.59-2.4,4.41-5.3,5.68-8.58l.34.05c.93.11,1.71.14,2.59-.17,1.77-.8,3.17-1.93,4.35-3.47.8-1.18,1.45-2.57,1.65-3.99.08-1.35.12-2.63-.43-3.9-.37-.7-.83-1.2-1.47-1.69-.54-.31-1.01-.39-1.64-.42-1.22.05-2.08.53-3.02,1.29M157.82,133.45c-.3.21-.56.41-.8.68-.36,1.08-.25,2.46-.05,3.57.42,1.47,1.09,2.94,2.12,4.08.8.73,1.8,1.11,2.83,1.38,1.79.26,3.62.12,5.31-.54.66-.3,1.15-.66,1.61-1.22.47-.78.73-1.48.79-2.4,0-.52,0-1.03,0-1.54v-.53c.02-1.23-.11-2.39-.49-3.56-.21-.33-.46-.59-.75-.76-.66-.15-1.29-.17-1.95-.17h-1.84c-2.33-.03-4.59.31-6.77,1M143.23,132.92c-.25.14-.45.34-.61.61.11,1.67.59,3.32.95,4.95.09.43.18.85.28,1.27.22,1.03.48,1.93,1.12,2.77.37.41.75.61,1.26.81,1.14.16,2.13-.03,3.21-.41.36-.15.66-.35.91-.6.21-.39.34-.79.45-1.21l.1-.36c.19-1.58,0-3.19-.6-4.67-.45-.88-.94-1.55-1.77-2.09-.99-.55-1.96-.74-3.08-.87l-.45-.06c-.6-.08-1.18-.14-1.78-.14M139.3,133.38c-.22.71-.06,1.29.08,2.01l.08.41c.41,1.88,1.01,3.81,2.26,5.31l.45.15c-.08-1.31-.3-2.6-.54-3.89-.06-.34-.12-.68-.18-1.02l-.12-.65-.11-.59c-.1-.46-.2-.85-.42-1.27-.53-.28-.91-.45-1.51-.45M127.5,143.47c-.45.49-.71.97-.87,1.62-.23,1.5.18,2.99.69,4.39.65,1.59,1.58,3.08,2.77,4.31l.27.19h.6c-.05-.62-.16-1.23-.32-1.83-.14-.47-.18-.86-.1-1.35.21-.52.59-.81,1.02-1.15.3-.2.59-.37.92-.52-.08-.83-.29-1.53-.61-2.31l-.14-.34c-.49-1.14-1.12-2.28-2.12-3.06-.4-.18-.64-.25-1.07-.28-.39.03-.74.13-1.03.32M182.63,150.65c-.26.38-.49.77-.73,1.17l-.17.28-.16.28c-.14.21-.26.42-.4.63-.79,1.25-1.33,2.65-1.48,4.11-.06.58-.14,1.03-.39,1.58-.66.68-1.51,1.12-2.32,1.58-.72.42-1.42.87-2.11,1.32l-.43.27c-1.42.89-2.78,1.84-4.08,2.89l.16.6.46.18.26.1c.43.03.74-.1,1.12-.29.44-.23.84-.52,1.24-.82.19-.14.37-.27.56-.41l.3-.22c.52-.38,1.05-.75,1.58-1.13l.32-.23c.72-.51,1.46-1.01,2.2-1.49.94-.56,1.77-1.23,2.5-2.01.06-.23.05-.44-.02-.63-.05-.22-.04-.45.02-.7l.14-.41.16-.46.3-.88c.42-1.23.78-2.48,1.08-3.75h0c.13-.54.21-1,.21-1.56h-.32ZM194.6,154.74l-.07.59c-.54,4.21-1.81,7.62-4.34,11.05-2.75,3.55-6.9,6.1-10.89,8.05v.3c2.43-.16,5.08-1.9,7.07-3.21,1.36-.95,2.62-2.02,3.83-3.15l.28-.24c1.82-1.7,3.03-3.99,3.78-6.34.54-1.81.82-3.43.8-5.31v-.46c0-.37,0-.75,0-1.12l-.45-.15h0ZM138.42,157.26c-.81.57-1.24,1.3-1.7,2.15-.43.95-.48,2.02-.46,3.05.09.48.22.93.46,1.36l.3.3c.84.02,1.43-.23,2.18-.61,1.17-.66,2.19-1.46,3.12-2.41-.06.65-.12,1.25-.31,1.88-.18.7-.24,1.34-.14,2.06.27.53.56.86.97,1.27l.39.24c.49,0,.76-.16,1.2-.4.7-.54,1.2-1.04,1.57-1.85.39-1.08.54-1.91.34-3.03-.26-1.17-.63-2.25-1.37-3.21-.66-.72-1.45-1.15-2.35-1.51-1.45-.44-2.93-.07-4.2.7M130.96,157.01c-.93,1.01-1.53,2.19-1.9,3.5-.27,1.25.07,2.57.39,3.78.47,1.25,1.2,2.21,2.22,3.07.75.54,1.58.73,2.48.87.36.03.69.03,1.06,0-.03-.23-.05-.47-.07-.71l-.04-.4c-.05-.4-.12-.78-.2-1.17l-.28-.06c-1.19-.32-2.22-.76-3.1-1.64-.69-.81-1.2-1.66-1.47-2.69v-.6l.24.28c1.01,1.17,2.14,2.18,3.39,3.05l.46-.15c-.54-1.65-1.09-3.3-1.71-4.92l-.15-.41c-.23-.63-.52-1.23-.87-1.8h-.46,0ZM162.02,160.8c-.2.22-.39.44-.58.67-2.14,2.41-5.34,4.17-8.36,5.24-.9.3-1.81.55-2.73.76h-.02c-.74.17-1.5.28-2.26.32l-.95.06c-.45.02-.9.03-1.35.04-.71.02-1.39.04-2.09.19-.19.13-.34.3-.44.49l-.16.57-.12.4c-.03.4.02.7.11,1.1.22,1.08.36,2.45.07,3.53-.05.19-.05.38,0,.59l.12.31.12.32c.1.21.3.4.6.57.39.04.76.05,1.16.05h1.08c.36,0,.73,0,1.1,0,2.13.02,3.99-.34,5.87-1.39l.36-.2c.84-.46,1.62-.97,2.38-1.57.21-.16.43-.28.66-.37l.28-.17c.11-.26.21-.54.28-.84.3-.98.76-1.7,1.39-2.5l.34-.47c1.19-1.24,2.73-2.16,4.36-2.71,1-.26,2.01-.44,3.03-.6v-.3c-.14-.15-.31-.3-.5-.45-1.2-1.03-2.32-2.12-3.24-3.41l-.2-.24h-.31ZM161.36,168.92c-1.03.75-1.74,1.59-2.27,2.74-.34.92-.35,1.81-.25,2.77.15.68.43,1.21.86,1.74l.35.38c.42-.42.5-.91.67-1.46.41-1.34.84-2.39,1.79-3.44.35-.33.73-.53,1.18-.71l.15.16-.2.29c-.86,1.28-1.55,2.6-1.69,4.15-.05.98-.02,1.89.41,2.8.31.53.65.92,1.18,1.24h.3l.02-.5c.05-1.45.15-2.74.92-4.02.31-.43.66-.69,1.12-.91.35-.11.72-.17,1.13-.17l-.18.28c-.67,1.05-1.12,2-1.22,3.25-.03,1,.03,1.8.49,2.69.22.26.47.46.76.6.31.07.61.07.91,0,.34-.25.56-.49.73-.88l.33-.99c.27-.83.54-1.51,1.06-2.22l.24.17.37.13c1.55-.31,3.17-1.02,4.37-2.06.23-.27.36-.48.47-.82.12-.7.09-1.35-.1-2.03-.52-1.25-1.36-2.26-2.39-3.13-1.18-.88-2.56-1.46-4.02-1.65-2.7-.2-5.18.07-7.48,1.6M139.9,169.74c-.2.41-.3.72-.31,1.18.24.73.69,1.31,1.22,1.86l.45.15.16-.15c.05-.98-.07-1.92-.31-2.88l-.15-.16h-1.06" fill="#191a19"/>
    <path d="M26.7,80.02h1.55c2.01,0,3.39.2,4.15.6.15.11.33.32.54.62.19.67.17,1.35.17,2.04v11.74c.19-.17.39-.33.58-.5l.33-.29c.35-.32.68-.66.99-1.01l.34-.4.33-.37.27-.31c.17-.19.34-.39.52-.59.65-.74,1.32-1.47,1.98-2.2.59-.65,1.17-1.31,1.72-1.99.4-.5.81-.97,1.27-1.42.45-.43.84-.88,1.23-1.37.89-1.11,1.87-2.14,2.86-3.17l.4-.42c.36-.34.67-.57,1.12-.79.31-.05.64-.09.99-.1l.3-.02c1.21-.05,2.42-.07,3.63-.07.4,0,.8,0,1.2-.01h1.12c.57,0,.93.04,1.46.27.44.27.72.5.84.69-.04.5-.11.84-.38,1.27-.86,1.01-1.75,1.98-2.67,2.94-.58.6-1.14,1.22-1.69,1.85-.43.49-.87.96-1.32,1.44-.63.67-1.25,1.34-1.86,2.04-.28.32-.57.63-.86.95-.6.65-1.18,1.3-1.72,1.99-.64.8-1.34,1.5-2.08,2.21-.58.57-1.09,1.12-1.51,1.82-.02.27.03.53.15.76.12.23.28.45.49.65l.33.4.19.22c.4.48.8.97,1.19,1.46l.52.63c.35.44.71.88,1.06,1.33.55.69,1.11,1.37,1.68,2.06.66.8,1.31,1.59,1.95,2.4.43.54.86,1.07,1.3,1.61l.26.32c.47.59.95,1.17,1.44,1.75.44.54.87,1.08,1.3,1.62.53.69,1.07,1.36,1.62,2.03l.23.27c.32.29.59.39,1,.53.65.05,1.3.05,1.96.05h2.1c.33-.02.63-.1.91-.24.41-.32.57-.56.8-1.03.05-.45.06-.86.06-1.31v-7.94c0-2.29,0-4.58,0-6.86,0-2.47,0-4.94,0-7.4v-7.77c0-.79.15-1.34.52-2.04.4-.42.7-.59,1.25-.77.98-.23,2-.18,3-.18h19.35c1.81,0,3.13.17,3.95.54.37.31.56.57.76,1.01.2.86.18,1.74.18,2.62v.46c0,1.09-.09,2.09-.51,3.11-.3.35-.58.51-1,.68-.67.19-1.36.16-2.04.15h-3.36c-1.33,0-2.67,0-4,.01-1.32,0-2.64,0-3.96.01h-4.07c-.23.03-.42.11-.59.25-.14.17-.22.35-.24.56v1.58c.01.45.01.89.02,1.35,0,.3,0,.61.01.91,0,.75.01,1.49.02,2.24h.57c1.78.01,3.56.02,5.34.04l2.75.02c.88,0,1.76.01,2.65.02h1.01c.47,0,.94,0,1.42.01h.42c.89.02,1.69.14,2.5.52.3.25.55.51.76.76.18.53.18,1.01.18,1.56v1.02c0,.35,0,.7.01,1.04v.98c0,.52-.06.88-.25,1.36-.28.46-.56.71-1,1.01-.43.14-.82.17-1.27.18h-1.3c-.33,0-.66.01-.99.01-.52,0-1.04,0-1.56.01-1.3.01-2.59.02-3.88.03-1.1,0-2.19.02-3.28.03-.52,0-1.03,0-1.55.01h-2.13s-.26.03-.26.03l-.15.15c-.02.45-.03.91-.03,1.36v1.28c0,.44,0,.89-.01,1.33v1.26c0,.27,0,.6.05.98.27.21.53.33.78.34h4.6c1.42,0,2.85.01,4.27.02,1.2,0,2.4,0,3.61.02h3.21c.94.01,1.77.11,2.62.52.3.25.55.51.76.76.18.55.18,1.06.19,1.63v1.08c0,.24,0,.49.01.74,0,.36.01.72.01,1.08v.33c0,.57-.07.91-.34,1.42-.22.26-.46.46-.73.59-1.17.24-2.33.28-3.53.28h-36.77c-1.07,0-2.26-.02-3.24-.5-.7-.45-1.18-1.09-1.66-1.76l-.52-.69-.27-.36c-.44-.59-.89-1.16-1.34-1.73-.68-.86-1.34-1.73-1.99-2.61-.83-1.11-1.68-2.21-2.54-3.29l-.23-.29c-1.04-1.36-2.13-2.68-3.26-3.95-.23.23-.46.47-.68.72l-.39.41c-.15.18-.3.36-.45.54l-.31.36c-.48.65-.86,1.2-1.01,2-.04.61-.04,1.21-.03,1.82v2.41c0,.93,0,1.86,0,2.79,0,.33,0,.65,0,.97v1.13c-.05.56-.2.92-.5,1.39-.7.44-1.35.59-2.17.63-.52,0-1.03.01-1.54.02-.33,0-.66,0-.98.01-1.15,0-2.27,0-3.34-.5-.42-.41-.57-.66-.76-1.21,0-.2-.02-.41-.02-.61v-34.24c0-.6.04-1.01.26-1.58.29-.45.56-.7,1-.99.55-.15,1.07-.17,1.64-.17" fill="#181918"/>
    <path id="eyebrow" d="M167.56,126.89c.6.35,1.06.74,1.43,1.34v.6h-.56c-.71-.02-1.41-.03-2.12-.03-.3,0-.6,0-.91-.02-2.71-.05-5.18.32-7.77,1.11,0-.57.05-1.01.31-1.52.76-1,1.9-1.52,3.03-2,2.07-.81,4.62-.4,6.59.52" fill="#1f201f"/>
    <path d="M163.17,135.25c.25.07.47.19.66.37.24.35.44.71.62,1.09l.15.3c.39.85.48,1.65.51,2.58l.02.55c-.05.34-.18.66-.37.95-.31.21-.56.34-.76.37-.34.02-.68,0-1.03,0h-.36c-.29-.02-.58-.03-.87-.05-.73-1.3-.77-2.36-.79-3.83v-.32c0-.44,0-.8.16-1.21.11-.16.27-.33.47-.51.56-.23,1-.31,1.6-.29M147.76,135.83c.42.06.61.12.97.36.49.71.73,1.5.86,2.34.03.44.04.87.05,1.31l.02.35c0,.23-.02.53-.06.92-.17.2-.37.35-.6.45s-.54.12-.92.07h-.48l-.42-.07c-.29-.29-.42-.52-.57-.9-.18-.87-.22-1.74-.24-2.63v-.35c0-.55.02-.91.26-1.41.39-.48.49-.46,1.13-.43" fill="#1b1c1b"/>
    <path d="M164.15,147.77c.27.02.52.07.75.15.15.22.25.47.3.76-.14.49-.35.81-.71,1.18-.97.85-2.13,1.27-3.38,1.55-1.37.22-2.65.21-3.96-.28-.24-.1-.49-.21-.73-.33v-.3l.71.12c.98.09,1.81.03,2.75-.28l.32-.1c1.4-.48,2.53-1.31,3.64-2.28l.32-.18h-.01Z" fill="#232423"/>
    <path d="M188.26,129.28h.58c-.51.51-.88.87-1.12,1.08-.92,1.05-1.39,2.44-1.89,3.72-.11.24-.26.46-.47.67-.3.03-.6.03-.91,0l-.31-.46c.04-.97.32-1.72.76-2.58l.16-.32c.44-.8,1.01-1.24,1.77-1.75.49-.29.87-.37,1.44-.36" fill="#222"/>
    <path d="M129.9,160.65c.21.22.41.47.61.76-.03.29-.08.54-.15.75l-.3-.15c-.05-.21-.08-.44-.1-.69l-.03-.38-.03-.3h0Z" fill="#090909"/>
  </g>
</svg>