<?xml version="1.0" encoding="UTF-8"?>
<svg id="_레이어_1" data-name="레이어_1" xmlns="http://www.w3.org/2000/svg" width="76.44mm" height="66.61mm" version="1.1" viewBox="0 0 216.68 188.83">
  <!-- Generator: Adobe Illustrator 29.6.1, SVG Export Plug-In . SVG Version: 2.1.1 Build 9)  -->
  <g id="_x34_d9c59f0f2">
    <path id="glow" d="M11.33.44l.91.47c1.91,1.19,3.04,3.02,4.33,4.95.48,1.33.65,2.55.54,3.96-.52,1.89-1.32,3.53-2.44,5.13,1.84,2.19,3.82,4.27,6,6.11,1.31,1.12,2.68,2.37,3.49,3.91.33,1.07.31,2.05.3,3.17v.68l-.02,2.16c0,.49-.01.97-.01,1.46,0,1.19-.02,2.39-.03,3.58l1.01-.05c.74,0,1.1.03,1.78.35,1.45,1.34,2.31,2.79,3.19,4.54.31.58.61,1.16.92,1.74l.47.9c.76,1.42,1.58,2.81,2.4,4.2.93,1.57,1.85,3.15,2.72,4.76l.41.76c.25.47.5.94.74,1.42l.33.63.29.55q.32.49.92.79l.51.21,1.46-2.63c.73-1.32,1.47-2.64,2.2-3.96.86-1.55,1.72-3.1,2.58-4.64.5-.9.99-1.81,1.49-2.71l.93-1.66.42-.77q1.6-2.86,2.81-3.89c.99-.5,1.8-.61,2.91-.61h1.81s.92,0,.92,0q2.78,0,4.1.61l.81.54c.27.8.31,1.32.31,2.15v.83s.01.92.01.92v.96c.02.88.02,1.75.03,2.63.01.91.02,1.83.02,2.74.02,1.73.03,3.46.04,5.19l.05,5.91c.03,4.06.06,8.11.09,12.16,1.01.02,2.02.03,3.02.03.29,0,.57.01.86.02h.84s.77.01.77.01c.81-.07,1.36-.22,2.08-.6,1-1.67,1.63-3.51,2.31-5.32l.35-.94c.25-.66.5-1.32.75-1.99.4-1.05.79-2.09,1.19-3.14,1.19-3.15,2.38-6.29,3.55-9.44.46-1.24.93-2.48,1.39-3.71.22-.58.44-1.17.65-1.75.3-.81.6-1.61.91-2.43l.26-.71c.58-1.52,1.29-2.89,2.44-4.06.76-.46,1.13-.55,2.05-.61.39,0,.77-.01,1.15-.01h.63c.43,0,.86,0,1.3,0,.66,0,1.31,0,1.97-.02h1.86c.86,0,1.61.1,2.44.36,1.29.92,2.02,2.17,2.68,3.58.26.62.49,1.24.72,1.88l.27.71c.18.51.37,1.01.56,1.51.39,1.08.79,2.16,1.19,3.23.21.56.42,1.13.63,1.68,1.01,2.73,2.05,5.45,3.1,8.17.28.73.57,1.46.85,2.2.89,2.3,1.79,4.59,2.74,6.87l.26.64c.51,1.2,1.05,2.26,1.84,3.31.69.34,1.17.31,1.93.31h1.72s.88,0,.88,0h1.61q.63,0,1.16-.31v-.84c.04-2.68.07-5.35.09-8.02.02-1.37.03-2.74.04-4.12.04-3.82.09-7.64.15-11.46.02-1.22.04-2.44.07-3.66.01-.53.02-1.05.03-1.57l.03-.94.02-.8c.14-.86.41-1.38.93-2.07,1.62-.71,3.3-.61,5.05-.6h.92c.64,0,1.29,0,1.93,0,.97,0,1.94,0,2.91,0q12.12.02,16.69,2.46c2.01,1.27,3.42,2.8,4.53,4.9,1.22,2.72,1.5,5.4,1.21,8.36-.32,1.8-.86,3.34-1.96,4.81-.33.39-.67.76-1.02,1.14l-.51.57c-1.29,1.38-2.7,2.32-4.36,3.21.03.84.19,1.47.62,2.2.47.66.96,1.31,1.46,1.95l.51.66c.33.44.66.88,1.01,1.31q.47.63.82,1.27c.38.64.67,1.07,1.27,1.53,1.26.3,2.47.29,3.75.27h1.04c.84.02,1.68.01,2.52,0l-.04-.75q.04-.87.26-1.39l.32-.44.35-.49.37-.49.35-.51c.55-.74,1.05-1.31,1.78-1.88q.65-.27,1.17-.22l.53.22.63.24.76.3c.69.24,1.39.47,2.08.71.34.11.67.23,1.02.35,2.42.73,5.19.88,7.69.42.88-.27,1.56-.61,2.32-1.12.49-.76.64-1.36.7-2.26q0-.57-.26-1.27c-1.06-1.12-2.51-1.54-3.96-1.98-1.29-.37-2.59-.71-3.89-1.06-3.74-1-7.08-2.05-9.96-4.77-1.28-1.35-1.94-2.98-2.39-4.78-.35-2.24-.34-4.72.42-6.87.89-1.9,2.36-3.44,4.06-4.65,3.35-1.94,7.22-2.7,11.05-2.71,3.81.08,8.32.81,11.66,2.71q1.26.89,1.63,1.62.11.68,0,1.62c-.74,1.65-1.79,3.18-3.2,4.32q-.59.28-1.19.24c-.45-.15-.89-.3-1.33-.47-2.36-.92-4.87-1.19-7.38-1.21h-.6c-1.4,0-2.64.24-3.88.91-.49.44-.79.76-1.08,1.35-.13.85-.2,1.34,0,2.16.58.74,1.34,1.18,2.16,1.63,1.48.54,2.98.94,4.49,1.35q8.18,2.21,10.92,4.86c.91,1.02,1.45,2.07,1.96,3.33l.22.53c.17.43.35.85.52,1.28h1.02c1.26.03,2.52.05,3.77.07.54.01,1.08.02,1.63.02q6.67.08,9.71,1.56c2.54,1.54,4.49,3.67,6.05,6.18,1.62,3.01,1.11,6.91,1.09,10.21l-.02,2.56c0,2.42-.02,4.85-.04,7.28-.01,1.49-.02,2.97-.02,4.46,0,.57,0,1.13-.01,1.7,0,.79-.01,1.58-.01,2.37v.7c0,1.01.03,1.66.47,2.59.46.58.84.87,1.49,1.22.96.57,1.59,1.06,2.18,2.03.52,1.39.71,2.84.54,4.32-.21,1.11-.54,2.05-1.2,2.97-.8.88-1.57,1.45-2.69,1.87-1.24.33-2.41.48-3.68.29-1.16-.31-2.07-.77-2.98-1.55-.99-1.05-1.67-2.11-2.06-3.51-.21-1.29-.05-2.4.36-3.63.54-1.23,1.26-2.03,2.3-2.87q.48-.33,1.07-.58l.49-.3c.41-1.03.31-2.16.31-3.25v-16.24c0-2.55-.02-5.09-.13-7.64l-.02-.64c-.06-1.18-.22-2.06-.85-3.07q-.44-.54-.93-1.03l-.51-.56c-1.37-1.47-2.97-2.84-4.9-3.49-.43-.03-.85-.05-1.29-.05l-.79-.02-.84-.02-.87-.02c-.92-.02-1.84-.04-2.76-.05l-1.86-.04c-1.52-.03-3.05-.05-4.57-.08l-.05.5-.07.67-.07.66c-.22,1.57-1.17,3.03-2.1,4.29-1.45,1.57-3.6,2.66-5.59,3.38-.7.2-1.41.36-2.13.5l-.74.14c-.91.14-1.77.17-2.68.17h-8.68c-6.39,0-12.77-.06-19.15-.29-.78-.02-1.54,0-2.32.02q-1.04-.04-1.94-.36c-.79-.54-1.23-1.04-1.77-1.82l-.56-.81-.56-.83-.52-.78c-.35-.53-.71-1.06-1.06-1.59-.66-.98-1.33-1.95-2.02-2.91l-.34-.49q-.78-1.11-1.73-2.06c-1-.34-1.99-.3-3.04-.29h-1.04s-.79.02-.79.02v.9c.03,1.1.04,2.2.04,3.3,0,.47.01.95.02,1.43,0,.68.01,1.37.02,2.05,0,.21.01.42.01.64,0,.93-.06,1.61-.45,2.46q-.45.57-1.27,1.1c-.76.06-1.49.08-2.25.07h-.69c-.76.01-1.52.01-2.28.01h-1.58c-1.11,0-2.22,0-3.33,0-1.42,0-2.84,0-4.26,0-1.09,0-2.18,0-3.28,0-.52,0-1.05,0-1.57,0-.73,0-1.47,0-2.2,0h-.65c-1.01,0-1.68-.09-2.63-.46q-.7-.45-1.29-1.31c-.54-1.05-.94-2.15-1.34-3.26q-.53-1.51-1.32-2.91-.49-.16-1.07-.18l-.66-.05c-1.17-.06-2.32-.07-3.49-.07h-.78c-.54,0-1.08,0-1.62,0-.82,0-1.65,0-2.47,0-.53,0-1.05,0-1.58,0h-.74q-1.66-.04-3.26.3-.36.53-.55,1.2l-.26.74-.26.79c-.62,1.9-1.22,3.46-2.72,4.83-2.24,1.12-5.92.58-8.39.59h-1.13c-.78,0-1.56,0-2.34,0-.99,0-1.98,0-2.98,0-.78,0-1.55,0-2.32,0-.54,0-1.08,0-1.63,0q-4.11-.01-5.55-.61c-.57-.63-.81-1.08-1.08-1.89-.03-.68-.04-1.36-.03-2.05v-.64c0-.69,0-1.38,0-2.06v-1.43c0-1.26,0-2.51,0-3.77,0-1.29,0-2.57,0-3.85,0-2.52.01-5.03.02-7.54-.8.78-1.36,1.48-1.9,2.46l-.46.82-.48.88-1.02,1.84-.52.93c-1.1,1.99-2.23,3.96-3.38,5.93-.24.42-.48.84-.72,1.27-.33.57-.66,1.15-.99,1.72l-.29.51c-.37.63-.7,1.14-1.3,1.57-.78.22-1.49.25-2.3.25l-.9.02c-1.08-.12-1.62-.27-2.51-.91-.65-.89-1.15-1.83-1.66-2.79-.15-.28-.3-.55-.46-.84-.47-.86-.94-1.72-1.4-2.59-.55-1.02-1.1-2.04-1.66-3.06l-.4-.73c-.91-1.67-1.85-3.31-2.83-4.94l-.37-.63c-.3-.49-.63-.97-.96-1.45l-.81-.27v.8c.02,2.49.03,4.97.03,7.46,0,1.28,0,2.56.01,3.84,0,1.23.01,2.47.01,3.7,0,.47,0,.94,0,1.41,0,.66,0,1.32,0,1.98v.59c0,1.16-.15,2.1-.6,3.18-.58.43-1.08.54-1.78.71-2.07.22-4.38.37-6.34-.44q-.69-.71-1.08-1.35c-1.13.45-1.9,1.27-2.74,2.1l-.48.47c-.33.33-.67.66-1,.99-.51.5-1.01.99-1.52,1.49-.32.32-.65.65-.97.97l-.45.44c-1.12,1.13-1.82,2.28-2.29,3.81-.15,1.18-.15,2.35-.14,3.54v1.05c0,.95,0,1.89,0,2.84,0,.99,0,1.99,0,2.98,0,1.67,0,3.34.01,5.01,0,1.92,0,3.84,0,5.77,0,1.85,0,3.71,0,5.57,0,.79,0,1.58,0,2.36,0,1.1,0,2.2.01,3.3v.98c.01,1.76.17,3.08.92,4.68q.33.54.74.96l.51.54q.32.33.64.66l.42.43c1.01,1.05,2.03,2.09,3.06,3.12l1.09,1.11c.53.54,1.06,1.08,1.6,1.61l.48.49c1.31,1.3,2.71,2.35,4.52,2.86,2.28.44,4.53.44,6.84.42h1.34c.96,0,1.92,0,2.88-.01,1.54,0,3.08,0,4.61,0,2.74,0,5.48-.01,8.22-.02q25.89-.07,36.49.05c.81,0,1.63.02,2.44.02,1.11,0,2.22.02,3.33.04h.97c2.77.06,5.07.69,7.48,2.07,1.83,1.24,3.43,2.9,4.54,4.82,1.05,2.19,1.38,4.35,1.39,6.76v.64c0,.46,0,.92.01,1.38,0,.73,0,1.46.01,2.19.02,2.07.03,4.14.04,6.21,0,1.27.02,2.54.03,3.81,0,.48.01.96.01,1.44q0,5.71,1.71,11.1l.31.51.31.55c1.14,1.72,2.75,2.81,4.55,3.77,3.19,1.24,6.59,1.12,9.96,1.11h1.32c1.15,0,2.3,0,3.45-.01,1.17,0,2.35,0,3.52,0,2.3,0,12.54-.03,14.84-.03l-1.17,3.93c-2.43.01-11.91-.11-14.34-.1-1.13,0-2.26,0-3.39.01-1.09,0-2.19.01-3.28.01-.41,0-.83,0-1.24,0-4.13.03-8.3-.14-12.05-2.07-2.48-1.47-4.47-3.36-5.97-5.83-1.38-2.51-1.9-4.89-2.06-7.74l-.04-.6c-.11-2.08-.12-4.16-.11-6.24,0-1.16,0-2.33-.01-3.49-.01-1.47-.01-2.93-.01-4.4,0-1.2,0-2.4-.01-3.6,0-.45,0-.9,0-1.35.02-2.54-.12-4.48-1.41-6.75-1.14-1.7-2.42-2.69-4.24-3.6-2.08-.74-4.15-.9-6.34-.89h-.83c-.91,0-1.82,0-2.73,0h-1.97c-1.41,0-2.82-.01-4.23-.01-2.04,0-4.08,0-6.12-.01l-9.95-.02h-.6c-3.02,0-6.03-.01-9.04-.02h-.6c-3.3,0-6.61-.01-9.91-.02-2.04,0-4.07-.01-6.1-.01-1.56,0-3.13,0-4.68-.01h-1.92c-.88,0-1.74,0-2.62,0h-.76c-2.3-.02-4.59-.49-6.61-1.63-2.21-1.35-3.97-3.22-5.78-5.06-.61-.61-1.22-1.23-1.84-1.84q-4.9-4.89-5.68-7.37c-.54-2.01-.71-3.85-.7-5.93v-.96c0-1.04,0-2.08,0-3.13,0-.73,0-1.46,0-2.19,0-1.53,0-3.06.01-4.58,0-1.76,0-3.52,0-5.28s0-3.4,0-5.1v-2.16q0-9.55,1.55-12.32c.79-1.15,1.76-2.1,2.77-3.06l.68-.67c.71-.69,1.42-1.39,2.14-2.07.71-.69,1.43-1.39,2.14-2.08.44-.43.88-.86,1.33-1.29l.61-.6.53-.52c.67-.78,1.22-1.53,1.59-2.49.15-.95.15-1.88.14-2.84v-.85c0-.6,0-1.21,0-1.81,0-.96,0-1.92,0-2.87.01-1.69.01-3.38.01-5.06,0-2.7,0-5.4.02-8.1,0-.94,0-1.88,0-2.82v-1.73s0-.8,0-.8c.01-1.13.07-1.92.48-2.98q.43-.65,1.01-.99l.63-.17.63-.18q.61-.12,1.69-.12c-.01-1.32-.03-2.64-.06-3.95l-.02-1.34c0-.65-.02-1.29-.03-1.94v-.6c-.03-1.02-.17-1.64-.67-2.53-.44-.55-.84-1.03-1.37-1.49l-.43-.39-.45-.4c-1.11-.99-2.16-2-3.15-3.13l-.59-.65c-.35-.4-.69-.8-1.02-1.2-.55-.59-.95-.95-1.68-1.3-.91-.07-1.78-.07-2.69-.03-1.45.05-2.59-.07-3.93-.65-1.55-.93-2.81-2.21-3.79-3.73C.2,11.12-.02,9.71,0,7.94c.15-1.67.68-3.07,1.61-4.46C2.85,1.97,4.21,1.07,6.02.37c1.7-.53,3.63-.49,5.31.07M5.76,4.7c-.84.83-1.52,1.56-1.9,2.7-.09,1-.1,1.97,0,2.97.59,1.2,1.34,1.92,2.43,2.7.93.46,1.92.38,2.94.36.82-.09,1.34-.22,2.06-.61.77-.57,1.2-1.15,1.62-2.01.41-1.09.58-1.97.41-3.14-.34-.99-.77-1.83-1.48-2.59-.66-.56-1.21-.92-2.03-1.19-1.54-.15-2.75-.09-4.05.81M128.76,44.94l-.27.27c-.03.72-.03,1.44-.03,2.16v.65c0,.69,0,1.38.01,2.07v1.4c0,1.15.01,2.3.02,3.44,1.07.33,2.02.61,3.15.57l.68-.03.71-.04.75-.04q4.11-.22,7.85-1.75c.67-.69,1.06-1.32,1.36-2.23.21-1.13.07-2.19-.26-3.29-.31-.79-.66-1.26-1.28-1.84-1.38-.84-2.61-1.33-4.23-1.39h-3.13c-.67,0-1.34,0-2.02,0h-1.89c-.48,0-.96.02-1.44.04M89.83,46.83c-1.05,2.34-2.01,4.73-2.94,7.13l-.33.84c-.59,1.56-.92,2.79-.78,4.46,1.94.46,3.78.63,5.78.63h.8s.77.01.77.01h.68q.66-.06,1.25-.51l.46-.4c-.39-2.07-1.06-4.02-1.79-5.99-.2-.55-.4-1.09-.59-1.64-.13-.35-.26-.71-.39-1.06l-.35-.96c-.41-.94-.83-1.71-1.47-2.51h-1.08ZM207.72,105.13q-.57.53-.83,1.11c-.1.81-.1,1.62,0,2.43q.38.82,1.08,1.35.89.45,1.89.54,1.03-.24,1.9-.81.59-.55.81-1.35c.06-.86,0-1.6-.27-2.43q-.65-.88-1.63-1.35c-1.14-.25-1.95-.14-2.95.51" fill="#1e1e1e"/>
    <path id="human1" d="M183.27,99.19c1.71.89,3.33,1.91,4.7,3.28l.81-1.89q.49.17,1.08.54c.72,1.14.95,2.17,1.08,3.51l.52.18c1.9.7,3.43,1.51,4.8,3.02,1.56,2.09,2.4,4.94,2.74,7.51.03.4.04.79.05,1.18l.03.82c.06,3.09-.22,6.15-.84,9.18-.13,1.44.06,2.42.54,3.78.68,2.1.79,4.04.54,6.21-.53,2.04-1.38,3.77-2.7,5.4.42,1.04,1.05,1.57,1.89,2.28,3.9,3.42,6.68,8.16,8.43,13,1.63,4.8,2.49,9.37,2.39,14.43h-.81l-.18-.62c-.39-.97-.71-1.59-1.44-2.35-1.54-.61-3.24-.69-4.87-.81l.93.29,1.2.38.61.19q1.53.47,2.13.77c-.13,1.75-.59,3.04-1.37,4.59l-.31.64c-.24.51-.5,1.02-.76,1.53l.42-.2c.63-.3,1.26-.59,1.89-.89l.65-.31c1.04-.47,1.94-.84,3.09-.86,1.15.11,1.72.34,2.64.98,1.57,1.44,2.32,3.49,3.01,5.45.44,1.49.63,2.92.47,4.47-.34.91-.63,1.45-1.33,2.11-1.08.62-2.12.64-3.34.66-1.48-.01-2.41-.18-3.7-.88q-.65-.34-1.35-.54-.56.13-1.1.44c-1.41.63-2.82.94-4.33,1.23l-.69.14c-4.68.89-10.13,1.36-14.7-.19-.74-.32-1.46-.67-2.17-1.06q-.57-.33-1.35-.56-.7.19-1.47.49c-2.08.72-4.16,1.17-6.37,1.13-.62,0-1.24,0-1.86.03l-.84.02-.85.03q-.78-.08-1.33-.46l-.52-.43c-.43-.17-.86-.33-1.3-.47-1.26-.48-2.06-1.1-2.98-2.07l-.32-.43v-.54l-.74-.19q-.88-.35-1.52-1.01l-.44-.69v-.81l-.91.51c-4.08,2.23-7.4,3.04-12.05,3.07h-.82c-.57.01-1.13.01-1.7.02-.58,0-1.16.01-1.74.02-.84.01-1.68.02-2.52.02h-.79s-.72.01-.72.01h-.64s-.55-.13-.55-.13q-.47-.51-.81-1.08-.08-.7-.05-1.42l.02-.73.03-.55c.84-.01,1.69-.02,2.54-.02h.73s.7-.01.7-.01h.64q.53.03,1.07.3l-.44-.59-.59-.79-.58-.78q-.55-.81-.98-1.68t-1.18-1.38c-.89-.46-1.67-.53-2.67-.57-1.45-.08-2.52-.39-3.78-1.1-1.15-.79-1.9-1.69-2.54-2.92-.99-2.14-1.22-4.03-1.03-6.4.28-1.04.65-1.99,1.08-2.97.18-.45.36-.9.54-1.35l-.41-.4c-2.13-2.22-3.45-4.77-4.2-7.74-.33-1.79-.26-3.36.29-5.1.48-.94.84-1.45,1.7-2.06,1.07-.54,1.96-.54,3.15-.5,1.12.17,1.84.53,2.73,1.22,1.65,1.65,2.49,3.9,3.4,6.01q.34.79,1.19,1.27.28.51.53,1.11l.28.65.29.69.56,1.34.26.6.24.47c1.45.72,3.67.35,5.27.31,1.45-.09,2.8-.45,4.2-.85.45-.09.9-.19,1.35-.27-.71-.73-1.42-1.41-2.23-2.04-1.92-1.63-3.42-3.81-4.38-6.13q-.15-.47-.15-1.01l-.48-.08q-.6-.19-1.07-.58c-1.97-2.2-2.79-4.76-3.4-7.61q-.14-.69-.72-1.19c-.24-.9-.33-1.77-.27-2.7q.57-.69,1.35-1.08c.45-.1.9-.19,1.35-.27l-.07-.66c-.09-.83-.17-1.66-.26-2.49l-.17-1.58c-.23-2.2-.43-4.4-.58-6.6l-.63.28q-.72.27-1.46.2l-.61-.2c-.32-.63-.35-1.15-.34-1.85.14-1.18.6-2.29,1.02-3.4l.27-.76.67-1.83-2.43-.81q.02-.67.27-1.62c4.64-6.24,11.56-11.47,18.66-14.58,1.5-.57,3.03-.98,4.59-1.35l.78-.19c6.65-1.46,14.35-.72,20.47,2.32M177.69,114.35c-2.44,1.27-4.86,2.55-7.21,3.96q-.63.35-1.44.63v-2.43c-1.13.34-2.08.77-3.09,1.38l-.83.49c-.56.34-1.12.68-1.68,1.02-1.86,1.11-3.73,2.01-5.76,2.79.14-.59.28-1.19.42-1.79q.15-.71.11-1.72c-1.49.43-2.76,1.13-4.1,1.88-1.83.99-3.56,1.82-5.63,2.18l.19-.62.23-.81.24-.81.15-.73-.27-.81c-.52.24-1.03.48-1.54.72l-.86.41c-.96.56-1.54.92-2.19,1.84-.19,1.03-.17,2.04-.14,3.09l.02.88c.05,2.13.19,4.28.93,6.3l.54.27q.51-.22,1.08-.54c.98-.45,1.68-.61,2.76-.52,1.1.17,1.98.44,2.92,1.06q.65.71,1.08,1.35v.27l-.58-.14c-.77-.14-1.47-.17-2.26-.16h-.84s-.86.01-.86.01h-.88l-2.14.02v.54l.52.08q6.58,1.01,8.94,2.35l.54.54q.6.13,1.25.17l.67.06.51.04.39-.74c.48-.7.93-1.09,1.69-1.47,4.29-1.65,9.09-1.56,13.6-1.3.45.08.9.18,1.35.27,1.58.08,2.82-.1,4.31-.61.19-.06.38-.12.57-.18,1.38-.46,2.73-1.01,4.04-1.64q.01-.72-.27-1.62c-.82-1.27-1.84-2.38-2.87-3.49-1.45-1.64-2.32-3.56-2.81-5.69-.1-1.28-.13-2.57-.15-3.85l-.03-.78-.02-.7q-.04-.68-.61-1.42M190.42,130.32c-1.57,1.42-2.46,3.39-3.38,5.27-.5.75-.99,1.05-1.78,1.46l-.54-2.7c-1.68.55-3.35,1.15-5,1.79l-.66.26-.63.24c-.19.07-.38.14-.57.22q-.44.16-.71.46c-.05.41-.09.82-.11,1.23l-.06.77c-.04.54-.08,1.07-.11,1.6-.17,2.13-.48,4.12-1.64,5.95-1.23,1.13-2.67,1.7-4.29,2.06-2.51.15-4.86.22-7.23-.74-.91-.51-1.68-.99-2.26-1.88-.29-.53-.56-1.07-.82-1.62l-.28-.58c-.64-1.34-1.17-2.67-1.58-4.09-.45.08-.9.17-1.35.27l-.27.27c-.06,1-.09,2-.11,3-.06,1.36-.24,2.3-.97,3.48l-.54.81q-.04.81.27,1.62c.8.69,1.43,1.03,2.45,1.28.72.06,1.42.09,2.15.07v.54c-1.06.35-2.15.42-3.24.27q-.88-.44-1.63-1.08l-.43-.84-.65-.78c-.84-.2-1.65-.15-2.5-.1l-.69.02c-.56.02-1.11.05-1.68.08.1.92.23,1.55.7,2.35,2.17,2.9,4.35,5.07,7.69,6.56,3.44,1.31,6.97,1.67,10.61,1.13,4.39-.73,8.01-2.53,11.49-5.3,3.43-2.91,5.82-6.05,7.64-10.15v-.54l.58.04c1.27.05,2.38.08,3.55-.48.34-.2.68-.42,1.01-.64l.49-.32c1.56-1.17,2.49-2.8,3.3-4.54.5-1.5.63-2.85.37-4.41-.28-1.14-.69-1.99-1.45-2.89q-.46-.41-1.08-.54c-1.7-.23-2.65.09-4.03,1.11M161.91,137.36l-.44.48c-.3,1.57-.17,3.17.26,4.7.46,1.18.96,2.15,1.75,3.15.99.74,1.89,1.23,3.09,1.52,2.09.21,3.74.06,5.71-.72q.81-.43,1.35-1.08c.75-1.44.93-2.57.9-4.19v-.59c-.01-1.27-.14-2.41-.63-3.59q-.52-.58-1.35-.81c-.94-.11-1.86-.11-2.8-.1h-.8c-2.34.06-4.91.16-7.04,1.24M147.14,136.77l-.27.27c-.15,1.83.32,3.53.74,5.3l.21.92c.29,1.23.54,2.23,1.23,3.29q.48.5,1.06.76c1.28.12,2.41.09,3.64-.3q.72-.48,1.2-1.2c.49-1.48.46-2.83.16-4.36-.28-1.03-.6-1.86-1.18-2.77-.64-.63-1.1-1-1.92-1.37-1.61-.4-3.21-.65-4.87-.54M143.36,137.04c-.17,2.1.36,3.97,1.08,5.94.41.78.84,1.45,1.35,2.16l.54-.27c-.17-1.01-.34-2.03-.51-3.04l-.14-.87-.14-.84-.13-.77c-.16-.68-.33-1.19-.7-1.78q-.69-.34-1.35-.54M130.82,147.79c-.54,1.07-.59,1.83-.54,3.02.31,2.53,1.31,4.43,2.83,6.44q.52.64,1.33,1.13l-.04-.73-.03-.96-.04-.95.11-.88c.51-.63.9-.99,1.62-1.35-.06-1.88-.54-3.13-1.44-4.76-.46-.66-.85-1.04-1.53-1.45-1.02-.17-1.43-.14-2.27.49M187.69,155.13c-1.39,1.85-2.26,3.53-2.7,5.79q-.39,1.84-.93,2.58c-.57.43-1.14.75-1.77,1.08-.72.44-1.43.89-2.15,1.33-.19.11-.38.23-.57.35q-2.15,1.29-4.05,2.91v.81q.76.07,1.63,0,.73-.35,1.44-.88l.84-.59.46-.33c.56-.41,1.13-.8,1.7-1.2.98-.69,1.96-1.38,2.94-2.07.37-.27.74-.52,1.13-.77q.46-.35.6-.9l.07-.61c.24-1.51.69-2.91,1.19-4.35.36-1.09.52-2.02.45-3.16h-.27ZM200.13,159.19l-.17.97c-.77,4.16-2.01,7.84-4.69,11.18l-.46.6c-2.64,3.24-6.45,5.3-10.09,7.23l.81.27c4.06-1.14,7.86-4.08,10.81-7.02,1.66-1.86,2.71-3.87,3.52-6.21l.2-.58c.58-2.07.38-4.31.34-6.44h-.27ZM142.01,161.88c-.76.83-1.27,1.63-1.62,2.7-.04.54-.05,1.08-.05,1.62v.86q0,.82.59,1.57c1.47-.08,2.49-.72,3.71-1.47.54-.38.98-.75,1.43-1.23l-.09.66-.1.88-.1.86q-.04.85.39,1.59.43.62.98,1.15.65.03,1.35-.27c.64-.47,1.15-.99,1.62-1.62.46-1.06.58-1.95.51-3.09-.19-1.27-.59-2.33-1.32-3.39-.78-.82-1.66-1.44-2.71-1.89-1.71-.28-3.2.04-4.59,1.08M134.71,161.35q-.42.52-.83,1.16l-.43.66c-.56.94-.69,1.71-.72,2.79.02,1.62.4,2.89,1.17,4.31.57.91,1.21,1.53,2.11,2.13,1.08.38,1.89.36,3.03.31l-.27-2.16-.54-.18q-1.91-.68-2.61-1.29-.34-.41-.9-1.23l-.49-.71q-.32-.64-.32-1.72l.41.49c1.13,1.32,2.08,2.27,3.65,3.02-.62-2.6-1.51-5.17-2.71-7.56h-.54ZM166.61,165.4q-.4.35-.81.82c-2.45,2.49-5.69,4.33-9.05,5.31-2.73.69-5.44,1.01-8.26,1.03l-.81.13q-.35.45-.54,1.08-.05.76.01,1.58l.04.91.05.95.05.96c.04.78.08,1.56.12,2.35,1.64.81,4.24.37,6.04.31,1.42-.09,2.47-.44,3.7-1.13l.51-.26q2.32-1.15,4.16-2.91c.45-.8.79-1.62,1.15-2.47.39-.83.68-1.25,1.4-1.81,2.01-1.27,4.2-2.15,6.57-2.28-.43-1.09-1.21-1.8-2.04-2.6q-1.44-1.39-1.74-1.99h-.54ZM166.22,173.3c-1.03.75-1.7,1.48-2.31,2.61-.37.83-.55,1.45-.67,2.36.16,1.06.47,1.83.94,2.79h.81c.08-.23.17-.47.26-.72l.35-.95.34-.94c.4-.9.8-1.54,1.48-2.25q.61-.35,1.08-.54l-.34.68-.45.89-.44.88c-.53,1.1-.73,1.96-.71,3.18.1.96.4,1.62.87,2.47q.55.32,1.08.54l.08-.66q.38-2.63.95-3.58.59-.63,1.33-.86l.61-.04-.24.47c-.48,1.01-.83,1.82-.94,2.94.11,1,.33,1.85.64,2.8l1.89.27c.71-1.33,1.26-2.59,1.63-4.05l.69.19q.96.15,1.9-.27c.33-.17.66-.34.99-.51l.51-.25c.7-.36,1.23-.67,1.7-1.32.23-.83.18-1.49.06-2.33-.32-1.16-.97-1.96-1.8-2.8-1.07-.94-2.13-1.76-3.51-2.16-.93-.08-1.84-.09-2.77-.08l-.74-.02c-1.94,0-3.53.36-5.26,1.25M143.63,174.58q-.09.6,0,1.35.47.9,1.08,1.62h.54c0-.44.01-.89.02-1.33v-.75s-.02-.61-.02-.61l-.27-.27c-.45-.02-.9-.02-1.35,0" fill="#1e1e1e"/>
    <path id="eyebrow" d="M171.48,129.93c.91.37,1.36.64,2.08,1.33q.35.64.35,1.18h-.52c-3.29.09-6.48.25-9.71.91q-.85.17-1.67.17c.09-.81.27-1.34.69-2.04.95-.95,2.05-1.5,3.34-1.9,1.84-.36,3.66-.24,5.43.34" fill="#232323"/>
    <path id="human2" d="M167.66,138.93l.84.27c.73.88,1.13,1.86,1.35,2.97.03.41.05.82.05,1.23v.63q-.05.57-.59,1.38c-.87.32-1.43.26-2.35.12l-.9-.39c-.51-1.15-.62-2.18-.63-3.43l-.02-.91.1-.79c.61-.81,1.1-1.08,2.13-1.08" fill="#242424"/>
    <path id="human3" d="M150.93,139.74q.91-.08,1.89,0c.63.61.8,1.06,1.08,1.89.02.65.02,1.3.02,1.94v1.04s-.02.8-.02.8q-.54.27-1.47.35l-.96-.08q-.46-.4-.81-1.08c-.1-.79-.09-1.56-.07-2.35v-.64c.01-.54.04-1.07.07-1.6l.27-.27Z" fill="#1f1f1f"/>
    <path id="human4" d="M168.5,151.89q.59.02,1.08.27l.54.81c-.72,1.03-1.34,1.7-2.48,2.24-1.54.61-3.05.84-4.7.64-.6-.12-1.16-.23-1.73-.45l-.27-.54.67-.07c2.08-.26,3.76-.7,5.54-1.82l.78-.64.57-.44Z" fill="#282828"/>
    <path id="human5" d="M194.18,132.72v.54l-.59.54c-1.17,1.11-1.74,2.67-2.38,4.13l-.28.47q-.71.2-1.35.27c-.2-.74-.29-1.26-.13-2.02.47-1.21.92-2.14,1.9-3,.94-.74,1.59-.93,2.82-.93" fill="#353535"/>
    <g id="post1">
      <path d="M33.96,90.34h20.83c.61,0,1.06.24,1.35.71.3.47.46.99.46,1.54s-.15,1.08-.44,1.54c-.28.46-.7.69-1.27.69h-2.5v8.19h1.58c.58,0,1.01.24,1.29.71.29.47.44.99.44,1.54s-.15,1.08-.44,1.54c-.28.46-.71.69-1.29.69h-7.27v6.29h10.85c.57,0,1,.24,1.29.71.29.47.44.99.44,1.54s-.16,1.08-.46,1.54c-.31.46-.76.69-1.35.69h-26.02c-.61,0-1.06-.23-1.35-.69-.28-.46-.42-.97-.42-1.54s.13-1.07.4-1.54c.28-.47.7-.71,1.27-.71h10.69v-6.29h-7.31c-.58,0-1.02-.23-1.31-.69-.28-.46-.42-.97-.42-1.54s.14-1.07.42-1.54c.29-.47.73-.71,1.31-.71h1.46v-8.19h-2.33c-.57,0-.99-.23-1.27-.69-.27-.46-.4-.97-.4-1.54s.14-1.07.42-1.54c.29-.47.74-.71,1.35-.71ZM47.88,103.01v-8.19h-7.17v8.19h7.17Z" fill="#fff"/>
    </g>
    <g id="post2">
      <path d="M87.07,103.32l-10.56-3.79-4.69,7.67c-.43.49-.95.74-1.54.75-.58.02-1.1-.14-1.56-.46-.49-.28-.85-.67-1.08-1.17-.22-.51-.16-1.05.19-1.63l5.58-9.15-1.29-5.08c-.08-.63.05-1.17.42-1.63.36-.46.81-.78,1.35-.96.54-.17,1.08-.15,1.63.04.55.18.98.58,1.27,1.21l1.42,5.85,10.38,3.98c.64.22,1.04.63,1.21,1.21.18.57.18,1.11,0,1.63-.17.56-.49,1.01-.96,1.35-.47.33-1.06.39-1.75.17ZM65.77,112.96h26.29c.59,0,1.05.24,1.35.71.3.47.46.98.46,1.52,0,.58-.16,1.1-.46,1.56-.31.46-.76.69-1.35.69h-26.29c-.6,0-1.04-.23-1.33-.69-.28-.46-.42-.98-.42-1.56,0-.54.14-1.05.42-1.52.29-.47.73-.71,1.33-.71Z" fill="#fff"/>
    </g>
    <g id="post3">
      <path d="M109.46,104.3h11.58c.61,0,1.04.23,1.29.69.26.46.38.97.35,1.52-.03.54-.2,1.04-.52,1.48-.32.45-.75.67-1.29.67h-13.35c-1.18,0-2.2-.34-3.06-1.02-.86-.69-1.29-1.63-1.29-2.81v-11.13c0-1.38.34-2.43,1.02-3.17.69-.75,1.88-1.13,3.54-1.13h13.1c.54,0,.96.23,1.25.69s.44.95.44,1.46c0,.54-.15,1.04-.44,1.48-.29.45-.71.67-1.25.67h-11.46c-.86,0-1.4.1-1.6.31-.08.08-.14.22-.15.4-.02.17-.02.36-.02.58v2.38h13.75c.57,0,.99.22,1.27.67.29.45.44.93.44,1.46s-.15.99-.44,1.42c-.28.43-.7.65-1.27.65h-13.75v1.63c0,.47.07.78.23.92.17.14.71.21,1.63.21ZM100.23,113.01h26.29c.59,0,1.05.24,1.35.71.3.47.46.98.46,1.52,0,.58-.16,1.1-.46,1.56-.31.46-.76.69-1.35.69h-26.29c-.6,0-1.04-.23-1.33-.69-.28-.46-.42-.98-.42-1.56,0-.54.14-1.05.42-1.52.29-.47.73-.71,1.33-.71Z" fill="#fff"/>
    </g>
  </g>
</svg>